HIERARCHY
ROOT Hips
{
	OFFSET 0.000000 0.000000 0.000000
	CHANNELS 6 Xposition Yposition Zposition Zrotation Yrotation Xrotation 
	JOINT LHipJoint
	{
		OFFSET 0.000000 0.000000 0.000000
		CHANNELS 3 Zrotation Yrotation Xrotation
		JOINT LeftUpLeg
		{
			OFFSET 1.363060 -1.794630 0.839290
			CHANNELS 3 Zrotation Yrotation Xrotation
			JOINT LeftLeg
			{
				OFFSET 2.448110 -6.726130 0.000000
				CHANNELS 3 Zrotation Yrotation Xrotation
				JOINT LeftFoot
				{
					OFFSET 2.562200 -7.039590 0.000000
					CHANNELS 3 Zrotation Yrotation Xrotation
					JOINT LeftToeBase
					{
						OFFSET 0.157640 -0.433110 2.322550
						CHANNELS 3 Zrotation Yrotation Xrotation
						End Site
						{
							OFFSET 0.000000 0.000000 0.000000
						}
					}
				}
			}
		}
	}
	JOINT RHipJoint
	{
		OFFSET 0.000000 0.000000 0.000000
		CHANNELS 3 Zrotation Yrotation Xrotation
		JOINT RightUpLeg
		{
			OFFSET -1.305520 -1.794630 0.839290
			CHANNELS 3 Zrotation Yrotation Xrotation
			JOINT RightLeg
			{
				OFFSET -2.542530 -6.985550 0.000000
				CHANNELS 3 Zrotation Yrotation Xrotation
				JOINT RightFoot
				{
					OFFSET -2.568260 -7.056230 0.000000
					CHANNELS 3 Zrotation Yrotation Xrotation
					JOINT RightToeBase
					{
						OFFSET -0.164730 -0.452590 2.363150
						CHANNELS 3 Zrotation Yrotation Xrotation
						End Site
						{
							OFFSET 0.000000 0.000000 0.000000
						}
					}
				}
			}
		}
	}
}
MOTION
Frames: 28
Frame Time: 0.008333
2.524113 17.269255 0.454726 6.871208 -38.724347 2.112167 -7.745362 2.498860 8.700168 -6.431999 -19.363775 -14.021961 -3.020362 -1.251388 -1.633837 -0.325686 1.258054 11.219951 1.024100 0.000001 -49.823399 12.765924 -3.049743 -2.305026 -1.447571 -34.533787 2.662580 0.927493 1.119050 -3.846372 -4.324723 -26.896912 2.738521 -6.551300 -0.000000 -56.687100
2.526400 17.264958 0.447872 6.778799 -38.299185 2.238093 -7.697649 2.520590 8.809213 -6.243998 -19.929451 -14.081418 -3.007373 -1.237023 -1.820677 -0.315304 1.293104 11.349003 1.034799 -0.000000 -49.829700 12.760667 -2.987384 -2.367645 -1.295786 -34.559686 2.691487 0.896472 1.137759 -3.753971 -4.411238 -27.364094 2.583038 -6.620200 -0.000000 -56.460800
2.528494 17.261077 0.440069 6.702570 -37.992756 2.332321 -7.656326 2.547152 8.887914 -6.096892 -20.332491 -14.107614 -2.997727 -1.225145 -2.019893 -0.310170 1.283559 11.482347 1.031500 0.000000 -49.863400 12.757225 -2.925401 -2.404879 -1.149283 -34.481201 2.714105 0.857080 1.155378 -3.652645 -4.500036 -27.822791 2.409132 -6.678101 0.000000 -56.209000
2.530279 17.257854 0.431529 6.634102 -37.818360 2.405453 -7.625627 2.577300 8.928983 -5.994046 -20.528075 -14.112854 -2.992349 -1.216546 -2.216383 -0.313350 1.204328 11.613071 1.006000 -0.000000 -49.926500 12.755198 -2.869805 -2.411341 -0.996373 -34.294436 2.724338 0.812175 1.172273 -3.561520 -4.587441 -28.256749 2.231600 -6.727000 -0.000000 -55.951799
2.531620 17.255432 0.422325 6.571553 -37.780295 2.463558 -7.604361 2.609011 8.939030 -5.922763 -20.550525 -14.083626 -2.990362 -1.214299 -2.441013 -0.320841 1.102368 11.752101 0.974100 -0.000000 -50.014199 12.754861 -2.822885 -2.390092 -0.839694 -34.019241 2.713615 0.766730 1.187298 -3.476268 -4.667322 -28.631040 2.049072 -6.755400 0.000000 -55.688699
2.532510 17.253962 0.412875 6.504553 -37.873627 2.518513 -7.594527 2.642072 8.917864 -5.877670 -20.385753 -14.036932 -2.991649 -1.217916 -2.677530 -0.334417 0.959584 11.892755 0.929400 0.000000 -50.125800 12.755256 -2.789046 -2.339190 -0.668252 -33.664544 2.680884 0.723568 1.201771 -3.416071 -4.737120 -28.939310 1.875913 -6.768700 -0.000000 -55.431899
2.533027 17.253484 0.403412 6.428265 -38.086220 2.578632 -7.596271 2.675883 8.870502 -5.847740 -20.054643 -13.981117 -2.995109 -1.226968 -2.922775 -0.352959 0.784578 12.034085 0.874699 0.000000 -50.255300 12.755073 -2.770014 -2.261946 -0.478678 -33.250542 2.627196 0.685562 1.216375 -3.390498 -4.794182 -29.174466 1.723470 -6.771100 0.000001 -55.192000
2.533470 17.253963 0.394073 6.338383 -38.400129 2.648535 -7.608573 2.709215 8.804467 -5.820639 -19.600078 -13.916042 -2.999035 -1.241071 -3.184095 -0.373581 0.602497 12.178159 0.817800 0.000000 -50.400000 12.752492 -2.765064 -2.165093 -0.272897 -32.799675 2.557469 0.654938 1.231498 -3.402616 -4.836737 -29.331046 1.593868 -6.762000 0.000000 -54.965600
2.534158 17.255328 0.385150 6.228994 -38.790858 2.736303 -7.632446 2.742047 8.722026 -5.791630 -19.028772 -13.869095 -3.002542 -1.256880 -3.423546 -0.397712 0.388728 12.309326 0.750100 -0.000000 -50.549600 12.745403 -2.774190 -2.052710 -0.045642 -32.333076 2.473491 0.633018 1.248132 -3.458036 -4.864880 -29.419239 1.500523 -6.752100 -0.000000 -54.779100
2.535422 17.257381 0.376495 6.103356 -39.236601 2.838026 -7.664282 2.772671 8.634089 -5.748192 -18.417334 -13.823524 -3.003192 -1.274330 -3.665408 -0.419482 0.199215 12.437212 0.689700 0.000000 -50.699301 12.732970 -2.792858 -1.936227 0.190729 -31.874868 2.384949 0.620260 1.265596 -3.548411 -4.878372 -29.438474 1.438497 -6.738300 0.000000 -54.617200
2.537514 17.259937 0.368054 5.964682 -39.714428 2.952345 -7.701924 2.800390 8.546640 -5.685620 -17.809336 -13.781620 -2.999550 -1.291723 -3.902041 -0.436633 0.051114 12.556429 0.642100 0.000000 -50.843800 12.714740 -2.817377 -1.823420 0.429915 -31.442838 2.298535 0.616329 1.283943 -3.668985 -4.878502 -29.397309 1.404446 -6.721400 -0.000000 -54.477500
2.540815 17.262775 0.359814 5.814001 -40.202770 3.077362 -7.744356 2.824769 8.461728 -5.605577 -17.224833 -13.757189 -2.990807 -1.306220 -4.104798 -0.449043 -0.061841 12.653920 0.605000 -0.000000 -50.970700 12.690371 -2.844449 -1.720015 0.668065 -31.050191 2.215354 0.620299 1.302542 -3.807791 -4.867471 -29.310031 1.399669 -6.705900 0.000000 -54.374999
2.545427 17.265713 0.351660 5.657878 -40.686949 3.208491 -7.788814 2.845367 8.383924 -5.507586 -16.701927 -13.747188 -2.975974 -1.316909 -4.272020 -0.454335 -0.117989 12.727177 0.585500 0.000000 -51.076900 12.660707 -2.869965 -1.631183 0.897947 -30.701671 2.138628 0.630395 1.320853 -3.954405 -4.848007 -29.188759 1.415928 -6.690700 -0.000000 -54.303400
2.551376 17.268607 0.343418 5.503054 -41.158210 3.339127 -7.833214 2.860733 8.313424 -5.398466 -16.266217 -13.829650 -2.949283 -1.313199 -4.232831 -0.451033 -0.107680 12.679126 0.587800 0.000000 -51.155600 12.626905 -2.890372 -1.559908 1.112590 -30.397706 2.070281 0.644649 1.338337 -4.097356 -4.822504 -29.043753 1.445846 -6.674900 -0.000000 -54.258400
2.558604 17.271324 0.335088 5.355130 -41.611750 3.466554 -7.876146 2.872261 8.253860 -5.275441 -15.927446 -13.905413 -2.917205 -1.307049 -4.189982 -0.438708 -0.020477 12.622756 0.614201 0.000000 -51.200900 12.589766 -2.903577 -1.506972 1.309351 -30.131259 2.006949 0.661149 1.354068 -4.226238 -4.793977 -28.886983 1.482988 -6.658600 -0.000000 -54.238400
2.566862 17.273800 0.326497 5.221595 -42.048737 3.584101 -7.915608 2.880507 8.205875 -5.142183 -15.694063 -13.944435 -2.881432 -1.301404 -4.195022 -0.416142 0.154178 12.585371 0.668100 -0.000000 -51.213000 12.551232 -2.907531 -1.473062 1.481189 -29.896096 1.952159 0.678127 1.367811 -4.338272 -4.763921 -28.722274 1.518594 -6.638501 0.000000 -54.232400
2.575758 17.276050 0.317952 5.104113 -42.473668 3.695564 -7.952161 2.886332 8.168004 -5.002336 -15.544437 -13.948911 -2.843645 -1.297577 -4.257277 -0.384963 0.397930 12.573237 0.743200 0.000000 -51.190899 12.511599 -2.903167 -1.451651 1.635293 -29.673595 1.893546 0.694029 1.379199 -4.424363 -4.735284 -28.562372 1.550812 -6.617599 0.000000 -54.248700
2.585010 17.278085 0.309420 5.004060 -42.894216 3.798395 -7.985122 2.890259 8.138647 -4.860226 -15.468803 -13.920043 -2.804182 -1.295587 -4.371553 -0.344381 0.707925 12.583162 0.838300 -0.000000 -51.135400 12.472215 -2.890530 -1.440059 1.769804 -29.455363 1.831585 0.708263 1.388628 -4.487408 -4.708064 -28.404415 1.573745 -6.592400 -0.000000 -54.272200
2.594111 17.279973 0.301169 4.921557 -43.318745 3.895327 -8.014980 2.891337 8.112343 -4.726323 -15.441272 -13.977664 -2.757330 -1.282730 -4.299480 -0.298169 1.057357 12.481502 0.945300 -0.000001 -51.050200 12.433875 -2.871294 -1.431340 1.889922 -29.228669 1.760024 0.720253 1.396797 -4.528041 -4.682818 -28.251464 1.588442 -6.564700 0.000001 -54.308199
2.602709 17.281789 0.293571 4.852307 -43.756502 3.991955 -8.042552 2.890827 8.090511 -4.595334 -15.447297 -14.071493 -2.706720 -1.266518 -4.154545 -0.246799 1.446495 12.330070 1.063900 0.000000 -50.944899 12.396210 -2.848146 -1.419867 2.002753 -28.981081 1.673137 0.730185 1.403914 -4.549894 -4.659706 -28.103564 1.596261 -6.535600 0.000000 -54.357900
2.610441 17.283566 0.286685 4.793705 -44.210953 4.090867 -8.068797 2.890268 8.069231 -4.472632 -15.450334 -14.187859 -2.655647 -1.249461 -3.972723 -0.193347 1.841475 12.152821 1.182000 0.000001 -50.818100 12.359868 -2.822858 -1.402377 2.111197 -28.713059 1.570266 0.739069 1.411008 -4.559923 -4.637224 -27.953197 1.595967 -6.502200 -0.000000 -54.407000
2.617143 17.285396 0.280898 4.739288 -44.687713 4.197368 -8.095129 2.890452 8.048350 -4.355767 -15.433236 -14.318060 -2.605207 -1.233655 -3.779596 -0.139304 2.234291 11.962994 1.297600 -0.000000 -50.685700 12.324061 -2.798369 -1.374272 2.221863 -28.418567 1.448809 0.747463 1.418436 -4.563040 -4.615009 -27.800471 1.593026 -6.467600 0.000000 -54.464900
2.622640 17.287280 0.276303 4.685650 -45.187368 4.314253 -8.122306 2.892156 8.027509 -4.243749 -15.384869 -14.458522 -2.556160 -1.219933 -3.586387 -0.085995 2.615193 11.766449 1.407500 0.000000 -50.550500 12.288487 -2.776243 -1.334116 2.337718 -28.100322 1.309746 0.756291 1.426886 -4.565784 -4.591892 -27.641322 1.590387 -6.432000 0.000000 -54.531501
2.626966 17.289218 0.272986 4.627902 -45.709209 4.443211 -8.151443 2.896175 8.005202 -4.137565 -15.288979 -14.605809 -2.509527 -1.208746 -3.401530 -0.035435 2.968433 11.569122 1.507100 0.000000 -50.420801 12.252685 -2.757954 -1.281250 2.460375 -27.763466 1.156034 0.766452 1.436867 -4.572629 -4.566799 -27.472232 1.590047 -6.395301 -0.000000 -54.602800
2.630172 17.291215 0.271000 4.563032 -46.250652 4.585088 -8.183087 2.903011 7.981913 -4.035872 -15.142840 -14.752661 -2.465813 -1.200850 -3.239523 0.011601 3.291077 11.378321 1.595900 0.000000 -50.303600 12.216134 -2.744372 -1.215745 2.591071 -27.412116 0.989359 0.778423 1.448539 -4.585646 -4.539310 -27.292876 1.594814 -6.358700 0.000001 -54.686100
2.632564 17.293168 0.270026 4.490454 -46.806921 4.734564 -8.217289 2.912742 7.956031 -3.940725 -14.946435 -14.893802 -2.425158 -1.195382 -3.098670 0.054548 3.577645 11.194160 1.672400 -0.000000 -50.194900 12.178920 -2.734711 -1.141845 2.724392 -27.057916 0.820885 0.792567 1.462176 -4.609837 -4.508272 -27.098915 1.603961 -6.320200 -0.000000 -54.769500
2.634270 17.295039 0.270085 4.409527 -47.374974 4.890794 -8.254247 2.925561 7.928325 -3.851475 -14.701162 -15.021544 -2.388034 -1.193043 -2.992821 0.092995 3.829057 11.024247 1.737700 -0.000000 -50.105600 12.140749 -2.729315 -1.059871 2.860131 -26.703022 0.650251 0.808759 1.477260 -4.641100 -4.474099 -26.893291 1.619658 -6.281600 -0.000000 -54.865200
2.635731 17.296777 0.270854 4.320540 -47.950715 5.047308 -8.293686 2.941035 7.897640 -3.770069 -14.412127 -15.129976 -2.354338 -1.193055 -2.920512 0.127060 4.046439 10.868691 1.792400 -0.000001 -50.034300 12.101776 -2.726990 -0.973808 2.993018 -26.354833 0.485268 0.826748 1.493393 -4.678799 -4.436628 -26.675430 1.640492 -6.241900 -0.000000 -54.969500
